<svg xmlns="http://www.w3.org/2000/svg" width="531" height="505" viewBox="0 0 531 505" fill="none">
  <path fill-rule="evenodd" clip-rule="evenodd" d="M265.5 263.34L184.568 182.636L366.366 101.41L397.142 132.068L265.5 263.34ZM1.00282 1L182.832 182.317L0.977652 263.567L0 264.004L0.757509 264.761L133.371 397.254L0.997191 530L0 531H1.41223H529.588H531L530.003 530L346.741 346.222L530.021 264.441L531 264.004L530.241 263.248L398.559 132.068L529.997 1L531 0H529.584H1.41621H0L1.00282 1ZM345.986 345.464L529.262 263.685L397.851 132.774L265.5 264.752L183.59 183.073L1.73516 264.324L134.077 396.545L264.794 265.46L265.5 264.752L266.206 265.46L345.986 345.464ZM134.784 397.252L265.5 266.168L345.008 345.901L164.157 426.598L134.784 397.252ZM134.078 397.96L163.937 427.792L345.764 346.658L528.591 530H2.40942L134.078 397.96ZM2.41904 1L183.81 181.88L366.586 100.217L397.85 131.362L528.581 1H2.41904Z" fill="url(#paint0_linear_839_30)"/>
  <defs>
    <linearGradient id="paint0_linear_839_30" x1="7.47888" y1="-3.73944" x2="515.294" y2="669.359" gradientUnits="userSpaceOnUse">
      <stop stop-color="white"/>
      <stop offset="1"/>
    </linearGradient>
  </defs>
</svg>