<svg xmlns="http://www.w3.org/2000/svg" width="81" height="17" viewBox="0 0 81 17" fill="none">
  <path fill-rule="evenodd" clip-rule="evenodd" d="M18.8962 13.5611L20.8443 16.4624V16.6154H20.947H25.1574H26.3432L33.0763 10.629H33.1126L39.8456 16.6154H45.3446V16.4444L35.9619 8.25884V8.20998L42.8011 2.24113L50.3514 10.8245V16.6154H53.7996V10.8245L60.1187 3.64073H69.5674C70.8015 3.64073 72.1385 3.57557 73.5782 3.44526L73.5964 3.56743L73.0519 3.90951C72.6889 4.15386 72.2352 4.46336 71.6908 4.83802C71.1584 5.19639 70.7168 5.51404 70.366 5.79097L58.878 14.7828V16.6154H81.0009V12.9503H69.7852C68.6842 12.9503 67.4925 13.0399 66.21 13.219L66.1737 13.0969L66.6092 12.8525C66.8996 12.6896 67.3231 12.4208 67.8796 12.0462C68.4362 11.6715 68.9806 11.2806 69.513 10.8733L81.0009 1.88145V0H63.1279H59.2954H58.2459L52.0936 6.98825H52.0573L45.905 0H45.145H41.0231H39.6642L33.1126 5.83983H33.0763L26.5247 0H21.0439V0.195475L30.227 8.20998V8.25884L23.5858 14.0526L14.1595 0H11.6913L0.693359 16.3955V16.6154H4.90379L6.95456 13.5611H18.8962ZM8.96904 10.5557L10.7476 7.91676C11.4493 6.87423 12.1632 5.73395 12.8891 4.49594H12.9617L15.1395 7.91676L16.8999 10.5557H8.96904Z" fill="white"/>
</svg>