<svg width="105" height="63" viewBox="0 0 105 63" fill="none" xmlns="http://www.w3.org/2000/svg">
<g clip-path="url(#clip0_964_851)">
<path d="M88.421 0L84.902 4.06452L81.3876 0L3.01435 0C1.35144 0 -0.00076476 1.36669 -0.00170578 3.04839L-0.0335471 59.9516C-0.0344881 61.6333 1.31618 63 2.9791 63H81.3523L84.8713 58.9355L88.3858 63H101.95C103.613 63 104.966 61.6333 104.966 59.9516L104.998 3.04839C104.999 1.36669 103.649 0 101.986 0L88.421 0Z" fill="#111111"/>
<path d="M20.1299 29.9688C19.9102 28.6943 18.8848 27.9619 17.5957 27.9619C15.8525 27.9619 14.6367 29.2949 14.6367 31.6973C14.6367 34.1289 15.8672 35.4326 17.5957 35.4326C18.8555 35.4326 19.8809 34.7295 20.1299 33.4844H22.0488C21.7559 35.5205 20.0859 37.1465 17.5664 37.1465C14.7686 37.1465 12.7178 35.1104 12.7178 31.6973C12.7178 28.2695 14.7979 26.248 17.5664 26.248C19.9102 26.248 21.7266 27.6104 22.0488 29.9688H20.1299ZM32.7023 31.6973C32.7023 35.125 30.6223 37.1465 27.8391 37.1465C25.0559 37.1465 22.9758 35.1104 22.9758 31.6973C22.9758 28.2695 25.0559 26.248 27.8391 26.248C30.6223 26.248 32.7023 28.2695 32.7023 31.6973ZM30.7834 31.6973C30.7834 29.2803 29.5676 27.9619 27.8391 27.9619C26.1105 27.9619 24.8947 29.2803 24.8947 31.6973C24.8947 34.1143 26.1105 35.4326 27.8391 35.4326C29.5676 35.4326 30.7834 34.1143 30.7834 31.6973ZM40.6459 26.3945H42.5648V33.3232C42.5648 35.5938 40.8363 37.1611 38.2582 37.1611C35.6654 37.1611 33.9516 35.5938 33.9516 33.3232V26.3945H35.8559V33.1621C35.8559 34.4951 36.7934 35.4619 38.2582 35.4619C39.723 35.4619 40.6459 34.4951 40.6459 33.1621V26.3945ZM44.0777 37V26.3945H48.0621C50.4937 26.3945 51.7975 27.874 51.7975 29.9102C51.7975 31.9463 50.4791 33.4111 48.0328 33.4111H45.982V37H44.0777ZM45.982 31.8438H47.7691C49.2047 31.8438 49.8492 31.0381 49.8492 29.9102C49.8492 28.7676 49.2047 27.9912 47.7691 27.9912H45.982V31.8438ZM62.3484 31.6973C62.3484 35.125 60.2684 37.1465 57.4852 37.1465C54.702 37.1465 52.6219 35.1104 52.6219 31.6973C52.6219 28.2695 54.702 26.248 57.4852 26.248C60.2684 26.248 62.3484 28.2695 62.3484 31.6973ZM60.4295 31.6973C60.4295 29.2803 59.2137 27.9619 57.4852 27.9619C55.7566 27.9619 54.5408 29.2803 54.5408 31.6973C54.5408 34.1143 55.7566 35.4326 57.4852 35.4326C59.2137 35.4326 60.4295 34.1143 60.4295 31.6973ZM72.3135 26.3945V37H70.6143L65.5898 29.749H65.502V37H63.5977V26.3945H65.3262L70.3213 33.6455H70.4238V26.3945H72.3135Z" fill="white"/>
</g>
<defs>
<clipPath id="clip0_964_851">
<rect width="105" height="63" fill="white"/>
</clipPath>
</defs>
</svg>
