<svg width="106" height="64" viewBox="0 0 106 64" fill="none" xmlns="http://www.w3.org/2000/svg">
<path d="M88.4367 0.975101L84.9188 5.0406L81.4032 0.977072L3.02998 0.999033C1.36706 0.999499 0.0152432 2.36657 0.0147734 4.04826L-0.00112269 60.9515C-0.00159248 62.6332 1.34946 63.9995 3.01238 63.999L81.3856 63.9771L84.9035 59.9116L88.4191 63.9751L101.984 63.9713C103.647 63.9708 104.998 62.6038 104.999 60.9221L105.015 4.01884C105.015 2.33715 103.664 0.970834 102.001 0.9713L88.4367 0.975101Z" fill="#111111"/>
<path d="M47.6807 33.748C47.6953 31.8804 48.2227 31.3091 49.1455 30.7451C49.7681 30.3423 50.2515 29.8516 50.2441 29.1191C50.2515 28.2988 49.6069 27.7715 48.8086 27.7715C48.0835 27.7715 47.3804 28.2402 47.3291 29.2217H45.498C45.5493 27.2515 47.0142 26.248 48.8232 26.248C50.8008 26.248 52.1558 27.3467 52.1631 29.0898C52.1558 30.2837 51.5625 31.0601 50.6104 31.624C49.7607 32.144 49.4092 32.6494 49.3945 33.748V33.8799H47.6807V33.748ZM47.4463 35.9746C47.439 35.3594 47.959 34.854 48.5889 34.8467C49.1968 34.854 49.7168 35.3594 49.7168 35.9746C49.7168 36.6045 49.1968 37.1172 48.5889 37.1172C47.959 37.1172 47.439 36.6045 47.4463 35.9746Z" fill="white"/>
</svg>
