<svg width="454" height="428" viewBox="0 0 454 428" fill="none" xmlns="http://www.w3.org/2000/svg">
<path fill-rule="evenodd" clip-rule="evenodd" d="M225.245 427.236V428H226.773V427.236V235.928H417.807H418.571V234.4H417.807H227.427L362.082 99.7091L362.622 99.1689L361.542 98.0885L361.002 98.6287L226.773 232.894V43.0697V42.3058H225.245V43.0697V234.4H0.763866H0V235.928H0.763866H223.74L77.4456 382.26L76.9055 382.801L77.9856 383.881L78.5257 383.341L225.245 236.583V427.236Z" fill="url(#paint0_linear_814_324)"/>
<path d="M435.236 241.649L441.087 233.096L435.804 225.397H440.116L443.48 230.538H443.599L446.939 225.397H450.99L445.683 233.096L451.535 241.649H447.223L443.314 235.631H443.196L439.31 241.649H435.236Z" fill="white"/>
<path d="M379.897 92.6067V86.0679L373.595 76.3544H377.694L381.721 82.8932H381.84L385.844 76.3544H389.705L383.451 86.0679V92.6067H379.897Z" fill="white"/>
<path d="M218.908 24V22.4837L227.342 10.638H219.501V7.74769H232.673V9.26394L224.239 21.086H232.863V24H218.908Z" fill="white"/>
<rect x="221" y="230" width="10" height="10" fill="#848484"/>
<defs>
<linearGradient id="paint0_linear_814_324" x1="82.5933" y1="56.6012" x2="314.369" y2="423.525" gradientUnits="userSpaceOnUse">
<stop offset="0.251097" stop-color="white"/>
<stop offset="0.796612"/>
</linearGradient>
</defs>
</svg>
